<?xml version="1.0" encoding="UTF-8"?>
<svg version="1.1" xmlns="http://www.w3.org/2000/svg" width="324" height="354">
<path d="M0 0 C106.92 0 213.84 0 324 0 C324 116.82 324 233.64 324 354 C217.08 354 110.16 354 0 354 C0 237.18 0 120.36 0 0 Z " fill="#181D22" transform="translate(0,0)"/>
<path d="M0 0 C8.58 0 17.16 0 26 0 C26 0.66 26 1.32 26 2 C27.32 2 28.64 2 30 2 C30 2.66 30 3.32 30 4 C30.66 4 31.32 4 32 4 C32 4.66 32 5.32 32 6 C32.66 6 33.32 6 34 6 C34 6.66 34 7.32 34 8 C34.66 8 35.32 8 36 8 C36 8.66 36 9.32 36 10 C36.66 10 37.32 10 38 10 C38 10.66 38 11.32 38 12 C38.66 12 39.32 12 40 12 C40 12.66 40 13.32 40 14 C40.66 14 41.32 14 42 14 C42 14.66 42 15.32 42 16 C42.66 16 43.32 16 44 16 C44 16.66 44 17.32 44 18 C44.66 18 45.32 18 46 18 C46 18.66 46 19.32 46 20 C46.66 20 47.32 20 48 20 C48 20.66 48 21.32 48 22 C48.66 22 49.32 22 50 22 C50 22.66 50 23.32 50 24 C50.66 24 51.32 24 52 24 C52 25.32 52 26.64 52 28 C52.66 28 53.32 28 54 28 C54 28.66 54 29.32 54 30 C54.66 30 55.32 30 56 30 C56 30.66 56 31.32 56 32 C56.66 32 57.32 32 58 32 C58 33.32 58 34.64 58 36 C58.66 36 59.32 36 60 36 C60 37.32 60 38.64 60 40 C60.66 40 61.32 40 62 40 C62 45.28 62 50.56 62 56 C61.34 56 60.68 56 60 56 C60 57.32 60 58.64 60 60 C59.34 60 58.68 60 58 60 C58 61.32 58 62.64 58 64 C57.34 64 56.68 64 56 64 C56 65.32 56 66.64 56 68 C55.34 68 54.68 68 54 68 C54 68.66 54 69.32 54 70 C53.34 70 52.68 70 52 70 C52 70.66 52 71.32 52 72 C51.34 72 50.68 72 50 72 C50 72.66 50 73.32 50 74 C48.68 74 47.36 74 46 74 C46 74.66 46 75.32 46 76 C44.68 76 43.36 76 42 76 C42 76.66 42 77.32 42 78 C40.68 78 39.36 78 38 78 C38 78.66 38 79.32 38 80 C37.34 80 36.68 80 36 80 C36 81.32 36 82.64 36 84 C35.34 84 34.68 84 34 84 C34 84.66 34 85.32 34 86 C33.34 86 32.68 86 32 86 C32 91.94 32 97.88 32 104 C32.66 104 33.32 104 34 104 C34 105.32 34 106.64 34 108 C34.66 108 35.32 108 36 108 C36 108.66 36 109.32 36 110 C36.66 110 37.32 110 38 110 C38 110.66 38 111.32 38 112 C38.66 112 39.32 112 40 112 C40 112.66 40 113.32 40 114 C40.66 114 41.32 114 42 114 C42 114.66 42 115.32 42 116 C86.22 116 130.44 116 176 116 C176 117.32 176 118.64 176 120 C176.66 120 177.32 120 178 120 C178 120.66 178 121.32 178 122 C178.66 122 179.32 122 180 122 C180 122.66 180 123.32 180 124 C180.66 124 181.32 124 182 124 C182 124.66 182 125.32 182 126 C182.66 126 183.32 126 184 126 C184 126.66 184 127.32 184 128 C184.66 128 185.32 128 186 128 C186 128.66 186 129.32 186 130 C186.66 130 187.32 130 188 130 C188 130.66 188 131.32 188 132 C188.66 132 189.32 132 190 132 C190 132.66 190 133.32 190 134 C179.44 134 168.88 134 158 134 C158 200.66 158 267.32 158 336 C157.34 336 156.68 336 156 336 C156 335.34 156 334.68 156 334 C155.34 334 154.68 334 154 334 C154 333.34 154 332.68 154 332 C153.34 332 152.68 332 152 332 C152 330.68 152 329.36 152 328 C151.34 328 150.68 328 150 328 C150 327.34 150 326.68 150 326 C149.34 326 148.68 326 148 326 C148 325.34 148 324.68 148 324 C147.34 324 146.68 324 146 324 C146 323.34 146 322.68 146 322 C145.34 322 144.68 322 144 322 C144 321.34 144 320.68 144 320 C143.34 320 142.68 320 142 320 C142 258.62 142 197.24 142 134 C130.12 134 118.24 134 106 134 C106 135.32 106 136.64 106 138 C106.66 138 107.32 138 108 138 C108 139.98 108 141.96 108 144 C108.66 144 109.32 144 110 144 C110 155.22 110 166.44 110 178 C109.34 178 108.68 178 108 178 C108 179.98 108 181.96 108 184 C107.34 184 106.68 184 106 184 C106 184.66 106 185.32 106 186 C105.34 186 104.68 186 104 186 C104 187.32 104 188.64 104 190 C104.66 190 105.32 190 106 190 C106 190.66 106 191.32 106 192 C106.66 192 107.32 192 108 192 C108 192.66 108 193.32 108 194 C109.32 194 110.64 194 112 194 C112 194.66 112 195.32 112 196 C112.66 196 113.32 196 114 196 C114 196.66 114 197.32 114 198 C114.66 198 115.32 198 116 198 C116 198.66 116 199.32 116 200 C116.66 200 117.32 200 118 200 C118 200.66 118 201.32 118 202 C118.66 202 119.32 202 120 202 C120 202.66 120 203.32 120 204 C120.66 204 121.32 204 122 204 C122 204.66 122 205.32 122 206 C122.66 206 123.32 206 124 206 C124 207.32 124 208.64 124 210 C124.66 210 125.32 210 126 210 C126 211.32 126 212.64 126 214 C126.66 214 127.32 214 128 214 C128 215.32 128 216.64 128 218 C128.66 218 129.32 218 130 218 C130 223.28 130 228.56 130 234 C129.34 234 128.68 234 128 234 C128 235.98 128 237.96 128 240 C127.34 240 126.68 240 126 240 C126 241.98 126 243.96 126 246 C125.34 246 124.68 246 124 246 C124 246.66 124 247.32 124 248 C123.34 248 122.68 248 122 248 C122 248.66 122 249.32 122 250 C121.34 250 120.68 250 120 250 C120 250.66 120 251.32 120 252 C119.34 252 118.68 252 118 252 C118 252.66 118 253.32 118 254 C117.34 254 116.68 254 116 254 C116 254.66 116 255.32 116 256 C115.34 256 114.68 256 114 256 C114 256.66 114 257.32 114 258 C112.02 258 110.04 258 108 258 C108 258.66 108 259.32 108 260 C102.72 260 97.44 260 92 260 C92 259.34 92 258.68 92 258 C90.68 258 89.36 258 88 258 C88 257.34 88 256.68 88 256 C86.68 256 85.36 256 84 256 C84 255.34 84 254.68 84 254 C82.68 254 81.36 254 80 254 C80 253.34 80 252.68 80 252 C79.34 252 78.68 252 78 252 C78 251.34 78 250.68 78 250 C76.68 250 75.36 250 74 250 C74 249.34 74 248.68 74 248 C73.34 248 72.68 248 72 248 C72 247.34 72 246.68 72 246 C71.34 246 70.68 246 70 246 C70 245.34 70 244.68 70 244 C69.34 244 68.68 244 68 244 C68 243.34 68 242.68 68 242 C67.34 242 66.68 242 66 242 C66 241.34 66 240.68 66 240 C64.68 240 63.36 240 62 240 C62 238.68 62 237.36 62 236 C61.34 236 60.68 236 60 236 C60 235.34 60 234.68 60 234 C59.34 234 58.68 234 58 234 C58 233.34 58 232.68 58 232 C57.34 232 56.68 232 56 232 C56 231.34 56 230.68 56 230 C55.34 230 54.68 230 54 230 C54 229.34 54 228.68 54 228 C53.34 228 52.68 228 52 228 C52 227.34 52 226.68 52 226 C51.34 226 50.68 226 50 226 C50 224.68 50 223.36 50 222 C49.34 222 48.68 222 48 222 C48 221.34 48 220.68 48 220 C47.34 220 46.68 220 46 220 C46 218.68 46 217.36 46 216 C45.34 216 44.68 216 44 216 C44 215.34 44 214.68 44 214 C43.34 214 42.68 214 42 214 C42 212.68 42 211.36 42 210 C41.34 210 40.68 210 40 210 C40 208.02 40 206.04 40 204 C39.34 204 38.68 204 38 204 C38 197.4 38 190.8 38 184 C38.66 184 39.32 184 40 184 C40 183.34 40 182.68 40 182 C40.66 182 41.32 182 42 182 C42 180.68 42 179.36 42 178 C42.66 178 43.32 178 44 178 C44 177.34 44 176.68 44 176 C45.32 176 46.64 176 48 176 C48 175.34 48 174.68 48 174 C48.66 174 49.32 174 50 174 C50 173.34 50 172.68 50 172 C57.26 172 64.52 172 72 172 C72 172.66 72 173.32 72 174 C73.98 174 75.96 174 78 174 C78 174.66 78 175.32 78 176 C79.98 176 81.96 176 84 176 C84 175.34 84 174.68 84 174 C85.32 174 86.64 174 88 174 C88 173.34 88 172.68 88 172 C88.66 172 89.32 172 90 172 C90 170.68 90 169.36 90 168 C90.66 168 91.32 168 92 168 C92 166.68 92 165.36 92 164 C92.66 164 93.32 164 94 164 C94 154.1 94 144.2 94 134 C64.96 134 35.92 134 6 134 C6 134.66 6 135.32 6 136 C6.66 136 7.32 136 8 136 C8 137.32 8 138.64 8 140 C8.66 140 9.32 140 10 140 C10 141.98 10 143.96 10 146 C10.66 146 11.32 146 12 146 C12 155.9 12 165.8 12 176 C11.34 176 10.68 176 10 176 C10 177.32 10 178.64 10 180 C9.34 180 8.68 180 8 180 C8 181.32 8 182.64 8 184 C7.34 184 6.68 184 6 184 C6 184.66 6 185.32 6 186 C5.34 186 4.68 186 4 186 C4 186.66 4 187.32 4 188 C3.34 188 2.68 188 2 188 C2 188.66 2 189.32 2 190 C1.34 190 0.68 190 0 190 C0 190.66 0 191.32 0 192 C-1.32 192 -2.64 192 -4 192 C-4 192.66 -4 193.32 -4 194 C-4.66 194 -5.32 194 -6 194 C-6 194.66 -6 195.32 -6 196 C-6.66 196 -7.32 196 -8 196 C-8 196.66 -8 197.32 -8 198 C-7.34 198 -6.68 198 -6 198 C-6 198.66 -6 199.32 -6 200 C-5.34 200 -4.68 200 -4 200 C-4 200.66 -4 201.32 -4 202 C-3.34 202 -2.68 202 -2 202 C-2 202.66 -2 203.32 -2 204 C-1.34 204 -0.68 204 0 204 C0 204.66 0 205.32 0 206 C0.66 206 1.32 206 2 206 C2 206.66 2 207.32 2 208 C2.66 208 3.32 208 4 208 C4 208.66 4 209.32 4 210 C4.66 210 5.32 210 6 210 C6 210.66 6 211.32 6 212 C6.66 212 7.32 212 8 212 C8 212.66 8 213.32 8 214 C8.66 214 9.32 214 10 214 C10 214.66 10 215.32 10 216 C10.66 216 11.32 216 12 216 C12 216.66 12 217.32 12 218 C12.66 218 13.32 218 14 218 C14 219.32 14 220.64 14 222 C14.66 222 15.32 222 16 222 C16 222.66 16 223.32 16 224 C16.66 224 17.32 224 18 224 C18 225.32 18 226.64 18 228 C18.66 228 19.32 228 20 228 C20 228.66 20 229.32 20 230 C20.66 230 21.32 230 22 230 C22 231.32 22 232.64 22 234 C22.66 234 23.32 234 24 234 C24 235.32 24 236.64 24 238 C24.66 238 25.32 238 26 238 C26 239.32 26 240.64 26 242 C26.66 242 27.32 242 28 242 C28 243.32 28 244.64 28 246 C28.66 246 29.32 246 30 246 C30 247.32 30 248.64 30 250 C30.66 250 31.32 250 32 250 C32 251.32 32 252.64 32 254 C32.66 254 33.32 254 34 254 C34 255.32 34 256.64 34 258 C34.66 258 35.32 258 36 258 C36 259.32 36 260.64 36 262 C36.66 262 37.32 262 38 262 C38 263.32 38 264.64 38 266 C38.66 266 39.32 266 40 266 C40 266.66 40 267.32 40 268 C40.66 268 41.32 268 42 268 C42 269.32 42 270.64 42 272 C42.66 272 43.32 272 44 272 C44 272.66 44 273.32 44 274 C44.66 274 45.32 274 46 274 C46 275.32 46 276.64 46 278 C46.66 278 47.32 278 48 278 C48 278.66 48 279.32 48 280 C48.66 280 49.32 280 50 280 C50 281.32 50 282.64 50 284 C50.66 284 51.32 284 52 284 C52 284.66 52 285.32 52 286 C52.66 286 53.32 286 54 286 C54 286.66 54 287.32 54 288 C54.66 288 55.32 288 56 288 C56 289.32 56 290.64 56 292 C56.66 292 57.32 292 58 292 C58 292.66 58 293.32 58 294 C58.66 294 59.32 294 60 294 C60 294.66 60 295.32 60 296 C60.66 296 61.32 296 62 296 C62 297.32 62 298.64 62 300 C62.66 300 63.32 300 64 300 C64 300.66 64 301.32 64 302 C64.66 302 65.32 302 66 302 C66 302.66 66 303.32 66 304 C66.66 304 67.32 304 68 304 C68 304.66 68 305.32 68 306 C68.66 306 69.32 306 70 306 C70 306.66 70 307.32 70 308 C70.66 308 71.32 308 72 308 C72 309.32 72 310.64 72 312 C72.66 312 73.32 312 74 312 C74 312.66 74 313.32 74 314 C74.66 314 75.32 314 76 314 C76 314.66 76 315.32 76 316 C76.66 316 77.32 316 78 316 C78 316.66 78 317.32 78 318 C78.66 318 79.32 318 80 318 C80 318.66 80 319.32 80 320 C80.66 320 81.32 320 82 320 C82 320.66 82 321.32 82 322 C82.66 322 83.32 322 84 322 C84 322.66 84 323.32 84 324 C84.66 324 85.32 324 86 324 C86 324.66 86 325.32 86 326 C86.66 326 87.32 326 88 326 C88 326.66 88 327.32 88 328 C88.66 328 89.32 328 90 328 C90 329.32 90 330.64 90 332 C90.66 332 91.32 332 92 332 C92 332.66 92 333.32 92 334 C92.66 334 93.32 334 94 334 C94 334.66 94 335.32 94 336 C94.66 336 95.32 336 96 336 C96 336.66 96 337.32 96 338 C96.66 338 97.32 338 98 338 C98 338.66 98 339.32 98 340 C98.66 340 99.32 340 100 340 C100 341.32 100 342.64 100 344 C99.34 344 98.68 344 98 344 C98 343.34 98 342.68 98 342 C97.34 342 96.68 342 96 342 C96 341.34 96 340.68 96 340 C95.34 340 94.68 340 94 340 C94 339.34 94 338.68 94 338 C93.34 338 92.68 338 92 338 C92 337.34 92 336.68 92 336 C91.34 336 90.68 336 90 336 C90 335.34 90 334.68 90 334 C89.34 334 88.68 334 88 334 C88 333.34 88 332.68 88 332 C87.34 332 86.68 332 86 332 C86 331.34 86 330.68 86 330 C85.34 330 84.68 330 84 330 C84 329.34 84 328.68 84 328 C83.34 328 82.68 328 82 328 C82 327.34 82 326.68 82 326 C81.34 326 80.68 326 80 326 C80 325.34 80 324.68 80 324 C79.34 324 78.68 324 78 324 C78 322.68 78 321.36 78 320 C77.34 320 76.68 320 76 320 C76 319.34 76 318.68 76 318 C75.34 318 74.68 318 74 318 C74 317.34 74 316.68 74 316 C73.34 316 72.68 316 72 316 C72 315.34 72 314.68 72 314 C71.34 314 70.68 314 70 314 C70 313.34 70 312.68 70 312 C69.34 312 68.68 312 68 312 C68 311.34 68 310.68 68 310 C67.34 310 66.68 310 66 310 C66 308.68 66 307.36 66 306 C65.34 306 64.68 306 64 306 C64 305.34 64 304.68 64 304 C63.34 304 62.68 304 62 304 C62 303.34 62 302.68 62 302 C61.34 302 60.68 302 60 302 C60 301.34 60 300.68 60 300 C59.34 300 58.68 300 58 300 C58 298.68 58 297.36 58 296 C57.34 296 56.68 296 56 296 C56 295.34 56 294.68 56 294 C55.34 294 54.68 294 54 294 C54 293.34 54 292.68 54 292 C53.34 292 52.68 292 52 292 C52 291.34 52 290.68 52 290 C51.34 290 50.68 290 50 290 C50 288.68 50 287.36 50 286 C49.34 286 48.68 286 48 286 C48 285.34 48 284.68 48 284 C47.34 284 46.68 284 46 284 C46 282.68 46 281.36 46 280 C45.34 280 44.68 280 44 280 C44 279.34 44 278.68 44 278 C43.34 278 42.68 278 42 278 C42 277.34 42 276.68 42 276 C41.34 276 40.68 276 40 276 C40 274.68 40 273.36 40 272 C39.34 272 38.68 272 38 272 C38 271.34 38 270.68 38 270 C37.34 270 36.68 270 36 270 C36 268.68 36 267.36 36 266 C35.34 266 34.68 266 34 266 C34 265.34 34 264.68 34 264 C33.34 264 32.68 264 32 264 C32 262.68 32 261.36 32 260 C31.34 260 30.68 260 30 260 C30 258.68 30 257.36 30 256 C29.34 256 28.68 256 28 256 C28 255.34 28 254.68 28 254 C27.34 254 26.68 254 26 254 C26 252.68 26 251.36 26 250 C25.34 250 24.68 250 24 250 C24 253.3 24 256.6 24 260 C23.34 260 22.68 260 22 260 C22 261.98 22 263.96 22 266 C21.34 266 20.68 266 20 266 C20 267.98 20 269.96 20 272 C19.34 272 18.68 272 18 272 C18 273.32 18 274.64 18 276 C17.34 276 16.68 276 16 276 C16 276.66 16 277.32 16 278 C15.34 278 14.68 278 14 278 C14 279.32 14 280.64 14 282 C12.68 282 11.36 282 10 282 C10 282.66 10 283.32 10 284 C9.34 284 8.68 284 8 284 C8 284.66 8 285.32 8 286 C2.06 286 -3.88 286 -10 286 C-10 285.34 -10 284.68 -10 284 C-10.66 284 -11.32 284 -12 284 C-12 283.34 -12 282.68 -12 282 C-13.32 282 -14.64 282 -16 282 C-16 281.34 -16 280.68 -16 280 C-16.66 280 -17.32 280 -18 280 C-18 279.34 -18 278.68 -18 278 C-18.66 278 -19.32 278 -20 278 C-20 277.34 -20 276.68 -20 276 C-20.66 276 -21.32 276 -22 276 C-22 275.34 -22 274.68 -22 274 C-22.66 274 -23.32 274 -24 274 C-24 273.34 -24 272.68 -24 272 C-24.66 272 -25.32 272 -26 272 C-26 271.34 -26 270.68 -26 270 C-26.66 270 -27.32 270 -28 270 C-28 269.34 -28 268.68 -28 268 C-28.66 268 -29.32 268 -30 268 C-30 267.34 -30 266.68 -30 266 C-30.66 266 -31.32 266 -32 266 C-32 265.34 -32 264.68 -32 264 C-32.66 264 -33.32 264 -34 264 C-34 263.34 -34 262.68 -34 262 C-34.66 262 -35.32 262 -36 262 C-36 261.34 -36 260.68 -36 260 C-36.66 260 -37.32 260 -38 260 C-38 259.34 -38 258.68 -38 258 C-38.66 258 -39.32 258 -40 258 C-40 256.68 -40 255.36 -40 254 C-40.66 254 -41.32 254 -42 254 C-42 253.34 -42 252.68 -42 252 C-42.66 252 -43.32 252 -44 252 C-44 251.34 -44 250.68 -44 250 C-44.66 250 -45.32 250 -46 250 C-46 248.68 -46 247.36 -46 246 C-46.66 246 -47.32 246 -48 246 C-48 245.34 -48 244.68 -48 244 C-48.66 244 -49.32 244 -50 244 C-50 242.68 -50 241.36 -50 240 C-50.66 240 -51.32 240 -52 240 C-52 239.34 -52 238.68 -52 238 C-52.66 238 -53.32 238 -54 238 C-54 236.68 -54 235.36 -54 234 C-54.66 234 -55.32 234 -56 234 C-56 232.68 -56 231.36 -56 230 C-56.66 230 -57.32 230 -58 230 C-58 228.68 -58 227.36 -58 226 C-58.66 226 -59.32 226 -60 226 C-60 224.02 -60 222.04 -60 220 C-60.66 220 -61.32 220 -62 220 C-62 218.02 -62 216.04 -62 214 C-62.66 214 -63.32 214 -64 214 C-64 209.38 -64 204.76 -64 200 C-63.34 200 -62.68 200 -62 200 C-62 198.68 -62 197.36 -62 196 C-61.34 196 -60.68 196 -60 196 C-60 194.68 -60 193.36 -60 192 C-59.34 192 -58.68 192 -58 192 C-58 191.34 -58 190.68 -58 190 C-57.34 190 -56.68 190 -56 190 C-56 189.34 -56 188.68 -56 188 C-54.68 188 -53.36 188 -52 188 C-52 187.34 -52 186.68 -52 186 C-50.02 186 -48.04 186 -46 186 C-46 185.34 -46 184.68 -46 184 C-43.36 184 -40.72 184 -38 184 C-38 183.34 -38 182.68 -38 182 C-34.7 182 -31.4 182 -28 182 C-28 181.34 -28 180.68 -28 180 C-26.02 180 -24.04 180 -22 180 C-22 179.34 -22 178.68 -22 178 C-20.68 178 -19.36 178 -18 178 C-18 177.34 -18 176.68 -18 176 C-16.68 176 -15.36 176 -14 176 C-14 175.34 -14 174.68 -14 174 C-13.34 174 -12.68 174 -12 174 C-12 173.34 -12 172.68 -12 172 C-11.34 172 -10.68 172 -10 172 C-10 171.34 -10 170.68 -10 170 C-9.34 170 -8.68 170 -8 170 C-8 168.68 -8 167.36 -8 166 C-7.34 166 -6.68 166 -6 166 C-6 164.68 -6 163.36 -6 162 C-5.34 162 -4.68 162 -4 162 C-4 160.02 -4 158.04 -4 156 C-3.34 156 -2.68 156 -2 156 C-2 148.74 -2 141.48 -2 134 C-39.62 134 -77.24 134 -116 134 C-116 133.34 -116 132.68 -116 132 C-116.66 132 -117.32 132 -118 132 C-118 131.34 -118 130.68 -118 130 C-118.66 130 -119.32 130 -120 130 C-120 128.68 -120 127.36 -120 126 C-120.66 126 -121.32 126 -122 126 C-122 125.34 -122 124.68 -122 124 C-122.66 124 -123.32 124 -124 124 C-124 123.34 -124 122.68 -124 122 C-124.66 122 -125.32 122 -126 122 C-126 121.34 -126 120.68 -126 120 C-126.66 120 -127.32 120 -128 120 C-128 118.68 -128 117.36 -128 116 C-73.88 116 -19.76 116 36 116 C36 115.34 36 114.68 36 114 C35.34 114 34.68 114 34 114 C34 113.34 34 112.68 34 112 C33.34 112 32.68 112 32 112 C32 111.34 32 110.68 32 110 C31.34 110 30.68 110 30 110 C30 109.34 30 108.68 30 108 C29.34 108 28.68 108 28 108 C28 107.34 28 106.68 28 106 C27.34 106 26.68 106 26 106 C26 105.34 26 104.68 26 104 C25.34 104 24.68 104 24 104 C24 103.34 24 102.68 24 102 C23.34 102 22.68 102 22 102 C22 100.68 22 99.36 22 98 C21.34 98 20.68 98 20 98 C20 96.68 20 95.36 20 94 C19.34 94 18.68 94 18 94 C18 87.4 18 80.8 18 74 C18.66 74 19.32 74 20 74 C20 72.68 20 71.36 20 70 C20.66 70 21.32 70 22 70 C22 69.34 22 68.68 22 68 C22.66 68 23.32 68 24 68 C24 67.34 24 66.68 24 66 C24.66 66 25.32 66 26 66 C26 64.68 26 63.36 26 62 C26.66 62 27.32 62 28 62 C28 61.34 28 60.68 28 60 C29.32 60 30.64 60 32 60 C32 59.34 32 58.68 32 58 C32.66 58 33.32 58 34 58 C34 57.34 34 56.68 34 56 C34.66 56 35.32 56 36 56 C36 55.34 36 54.68 36 54 C36.66 54 37.32 54 38 54 C38 53.34 38 52.68 38 52 C38.66 52 39.32 52 40 52 C40 51.34 40 50.68 40 50 C40.66 50 41.32 50 42 50 C42 49.34 42 48.68 42 48 C42.66 48 43.32 48 44 48 C44 46.02 44 44.04 44 42 C44.66 42 45.32 42 46 42 C46 36.06 46 30.12 46 24 C45.34 24 44.68 24 44 24 C44 23.34 44 22.68 44 22 C43.34 22 42.68 22 42 22 C42 21.34 42 20.68 42 20 C41.34 20 40.68 20 40 20 C40 19.34 40 18.68 40 18 C38.68 18 37.36 18 36 18 C36 17.34 36 16.68 36 16 C28.74 16 21.48 16 14 16 C14 16.66 14 17.32 14 18 C13.34 18 12.68 18 12 18 C12 18.66 12 19.32 12 20 C11.34 20 10.68 20 10 20 C10 20.66 10 21.32 10 22 C9.34 22 8.68 22 8 22 C8 22.66 8 23.32 8 24 C7.34 24 6.68 24 6 24 C6 24.66 6 25.32 6 26 C5.34 26 4.68 26 4 26 C4 27.32 4 28.64 4 30 C3.34 30 2.68 30 2 30 C2 33.3 2 36.6 2 40 C1.34 40 0.68 40 0 40 C0 39.34 0 38.68 0 38 C-0.66 38 -1.32 38 -2 38 C-2 37.34 -2 36.68 -2 36 C-2.66 36 -3.32 36 -4 36 C-4 35.34 -4 34.68 -4 34 C-4.66 34 -5.32 34 -6 34 C-6 33.34 -6 32.68 -6 32 C-6.66 32 -7.32 32 -8 32 C-8 30.68 -8 29.36 -8 28 C-8.66 28 -9.32 28 -10 28 C-10 22.72 -10 17.44 -10 12 C-9.34 12 -8.68 12 -8 12 C-8 10.68 -8 9.36 -8 8 C-7.34 8 -6.68 8 -6 8 C-6 7.34 -6 6.68 -6 6 C-5.34 6 -4.68 6 -4 6 C-4 5.34 -4 4.68 -4 4 C-3.34 4 -2.68 4 -2 4 C-2 3.34 -2 2.68 -2 2 C-1.34 2 -0.68 2 0 2 C0 1.34 0 0.68 0 0 Z " fill="#C9A361" transform="translate(132,0)"/>
<path d="M0 0 C6.6 0 13.2 0 20 0 C20 0.66 20 1.32 20 2 C21.98 2 23.96 2 26 2 C26 2.66 26 3.32 26 4 C27.98 4 29.96 4 32 4 C32 4.66 32 5.32 32 6 C33.32 6 34.64 6 36 6 C36 6.66 36 7.32 36 8 C37.32 8 38.64 8 40 8 C40 8.66 40 9.32 40 10 C40.66 10 41.32 10 42 10 C42 10.66 42 11.32 42 12 C42.66 12 43.32 12 44 12 C44 12.66 44 13.32 44 14 C44.66 14 45.32 14 46 14 C46 15.98 46 17.96 46 20 C46.66 20 47.32 20 48 20 C48 27.92 48 35.84 48 44 C47.34 44 46.68 44 46 44 C46 45.32 46 46.64 46 48 C45.34 48 44.68 48 44 48 C44 49.98 44 51.96 44 54 C43.34 54 42.68 54 42 54 C42 54.66 42 55.32 42 56 C41.34 56 40.68 56 40 56 C40 57.32 40 58.64 40 60 C39.34 60 38.68 60 38 60 C38 60.66 38 61.32 38 62 C36.68 62 35.36 62 34 62 C34 62.66 34 63.32 34 64 C32.68 64 31.36 64 30 64 C30 64.66 30 65.32 30 66 C26.04 66 22.08 66 18 66 C18 65.34 18 64.68 18 64 C16.68 64 15.36 64 14 64 C14 63.34 14 62.68 14 62 C13.34 62 12.68 62 12 62 C12 61.34 12 60.68 12 60 C11.34 60 10.68 60 10 60 C10 59.34 10 58.68 10 58 C9.34 58 8.68 58 8 58 C8 57.34 8 56.68 8 56 C7.34 56 6.68 56 6 56 C6 55.34 6 54.68 6 54 C5.34 54 4.68 54 4 54 C4 52.68 4 51.36 4 50 C3.34 50 2.68 50 2 50 C2 49.34 2 48.68 2 48 C1.34 48 0.68 48 0 48 C0 46.68 0 45.36 0 44 C-0.66 44 -1.32 44 -2 44 C-2 42.68 -2 41.36 -2 40 C-2.66 40 -3.32 40 -4 40 C-4 38.68 -4 37.36 -4 36 C-4.66 36 -5.32 36 -6 36 C-6 34.68 -6 33.36 -6 32 C-6.66 32 -7.32 32 -8 32 C-8 24.74 -8 17.48 -8 10 C-7.34 10 -6.68 10 -6 10 C-6 8.68 -6 7.36 -6 6 C-5.34 6 -4.68 6 -4 6 C-4 5.34 -4 4.68 -4 4 C-3.34 4 -2.68 4 -2 4 C-2 3.34 -2 2.68 -2 2 C-1.34 2 -0.68 2 0 2 C0 1.34 0 0.68 0 0 Z " fill="#181C22" transform="translate(92,204)"/>
<path d="M0 0 C5.94 0 11.88 0 18 0 C18 0.66 18 1.32 18 2 C19.98 2 21.96 2 24 2 C24 2.66 24 3.32 24 4 C25.32 4 26.64 4 28 4 C28 4.66 28 5.32 28 6 C32.62 6 37.24 6 42 6 C42 6.66 42 7.32 42 8 C43.98 8 45.96 8 48 8 C48 8.66 48 9.32 48 10 C48.66 10 49.32 10 50 10 C50 11.32 50 12.64 50 14 C50.66 14 51.32 14 52 14 C52 19.28 52 24.56 52 30 C51.34 30 50.68 30 50 30 C50 32.64 50 35.28 50 38 C49.34 38 48.68 38 48 38 C48 38.66 48 39.32 48 40 C47.34 40 46.68 40 46 40 C46 41.32 46 42.64 46 44 C45.34 44 44.68 44 44 44 C44 44.66 44 45.32 44 46 C43.34 46 42.68 46 42 46 C42 46.66 42 47.32 42 48 C41.34 48 40.68 48 40 48 C40 48.66 40 49.32 40 50 C38.68 50 37.36 50 36 50 C36 50.66 36 51.32 36 52 C34.68 52 33.36 52 32 52 C32 52.66 32 53.32 32 54 C26.72 54 21.44 54 16 54 C16 53.34 16 52.68 16 52 C14.68 52 13.36 52 12 52 C12 51.34 12 50.68 12 50 C10.68 50 9.36 50 8 50 C8 49.34 8 48.68 8 48 C7.34 48 6.68 48 6 48 C6 47.34 6 46.68 6 46 C4.68 46 3.36 46 2 46 C2 45.34 2 44.68 2 44 C1.34 44 0.68 44 0 44 C0 43.34 0 42.68 0 42 C-0.66 42 -1.32 42 -2 42 C-2 41.34 -2 40.68 -2 40 C-2.66 40 -3.32 40 -4 40 C-4 39.34 -4 38.68 -4 38 C-4.66 38 -5.32 38 -6 38 C-6 37.34 -6 36.68 -6 36 C-6.66 36 -7.32 36 -8 36 C-8 34.02 -8 32.04 -8 30 C-8.66 30 -9.32 30 -10 30 C-10 23.4 -10 16.8 -10 10 C-9.34 10 -8.68 10 -8 10 C-8 9.34 -8 8.68 -8 8 C-7.34 8 -6.68 8 -6 8 C-6 7.34 -6 6.68 -6 6 C-5.34 6 -4.68 6 -4 6 C-4 5.34 -4 4.68 -4 4 C-3.34 4 -2.68 4 -2 4 C-2 3.34 -2 2.68 -2 2 C-1.34 2 -0.68 2 0 2 C0 1.34 0 0.68 0 0 Z " fill="#181D24" transform="translate(194,190)"/>
<path d="M0 0 C0 0.66 0 1.32 0 2 C0.66 2 1.32 2 2 2 C2 2.66 2 3.32 2 4 C2.66 4 3.32 4 4 4 C4 4.66 4 5.32 4 6 C4.66 6 5.32 6 6 6 C6 7.32 6 8.64 6 10 C6.66 10 7.32 10 8 10 C8 10.66 8 11.32 8 12 C8.66 12 9.32 12 10 12 C10 13.32 10 14.64 10 16 C10.66 16 11.32 16 12 16 C12 16.66 12 17.32 12 18 C12.66 18 13.32 18 14 18 C14 19.32 14 20.64 14 22 C14.66 22 15.32 22 16 22 C16 23.32 16 24.64 16 26 C16.66 26 17.32 26 18 26 C18 27.32 18 28.64 18 30 C18.66 30 19.32 30 20 30 C20 31.32 20 32.64 20 34 C20.66 34 21.32 34 22 34 C22 35.32 22 36.64 22 38 C22.66 38 23.32 38 24 38 C24 39.32 24 40.64 24 42 C24.66 42 25.32 42 26 42 C26 43.32 26 44.64 26 46 C26.66 46 27.32 46 28 46 C28 47.32 28 48.64 28 50 C28.66 50 29.32 50 30 50 C30 51.32 30 52.64 30 54 C30.66 54 31.32 54 32 54 C32 54.66 32 55.32 32 56 C32.66 56 33.32 56 34 56 C34 57.32 34 58.64 34 60 C34.66 60 35.32 60 36 60 C36 60.66 36 61.32 36 62 C36.66 62 37.32 62 38 62 C38 63.32 38 64.64 38 66 C38.66 66 39.32 66 40 66 C40 66.66 40 67.32 40 68 C40.66 68 41.32 68 42 68 C42 69.32 42 70.64 42 72 C42.66 72 43.32 72 44 72 C44 72.66 44 73.32 44 74 C44.66 74 45.32 74 46 74 C46 74.66 46 75.32 46 76 C46.66 76 47.32 76 48 76 C48 77.32 48 78.64 48 80 C48.66 80 49.32 80 50 80 C50 80.66 50 81.32 50 82 C50.66 82 51.32 82 52 82 C52 82.66 52 83.32 52 84 C52.66 84 53.32 84 54 84 C54 85.32 54 86.64 54 88 C54.66 88 55.32 88 56 88 C56 88.66 56 89.32 56 90 C56.66 90 57.32 90 58 90 C58 90.66 58 91.32 58 92 C58.66 92 59.32 92 60 92 C60 92.66 60 93.32 60 94 C60.66 94 61.32 94 62 94 C62 94.66 62 95.32 62 96 C62.66 96 63.32 96 64 96 C64 97.32 64 98.64 64 100 C64.66 100 65.32 100 66 100 C66 100.66 66 101.32 66 102 C66.66 102 67.32 102 68 102 C68 102.66 68 103.32 68 104 C68.66 104 69.32 104 70 104 C70 104.66 70 105.32 70 106 C70.66 106 71.32 106 72 106 C72 106.66 72 107.32 72 108 C72.66 108 73.32 108 74 108 C74 108.66 74 109.32 74 110 C74.66 110 75.32 110 76 110 C76 110.66 76 111.32 76 112 C76.66 112 77.32 112 78 112 C78 112.66 78 113.32 78 114 C78.66 114 79.32 114 80 114 C80 114.66 80 115.32 80 116 C80.66 116 81.32 116 82 116 C82 117.32 82 118.64 82 120 C82.66 120 83.32 120 84 120 C84 120.66 84 121.32 84 122 C84.66 122 85.32 122 86 122 C86 122.66 86 123.32 86 124 C86.66 124 87.32 124 88 124 C88 124.66 88 125.32 88 126 C88.66 126 89.32 126 90 126 C90 126.66 90 127.32 90 128 C90.66 128 91.32 128 92 128 C92 129.32 92 130.64 92 132 C91.34 132 90.68 132 90 132 C90 131.34 90 130.68 90 130 C89.34 130 88.68 130 88 130 C88 129.34 88 128.68 88 128 C87.34 128 86.68 128 86 128 C86 127.34 86 126.68 86 126 C85.34 126 84.68 126 84 126 C84 125.34 84 124.68 84 124 C83.34 124 82.68 124 82 124 C82 123.34 82 122.68 82 122 C81.34 122 80.68 122 80 122 C80 121.34 80 120.68 80 120 C79.34 120 78.68 120 78 120 C78 119.34 78 118.68 78 118 C77.34 118 76.68 118 76 118 C76 117.34 76 116.68 76 116 C75.34 116 74.68 116 74 116 C74 115.34 74 114.68 74 114 C73.34 114 72.68 114 72 114 C72 113.34 72 112.68 72 112 C71.34 112 70.68 112 70 112 C70 110.68 70 109.36 70 108 C69.34 108 68.68 108 68 108 C68 107.34 68 106.68 68 106 C67.34 106 66.68 106 66 106 C66 105.34 66 104.68 66 104 C65.34 104 64.68 104 64 104 C64 103.34 64 102.68 64 102 C63.34 102 62.68 102 62 102 C62 101.34 62 100.68 62 100 C61.34 100 60.68 100 60 100 C60 99.34 60 98.68 60 98 C59.34 98 58.68 98 58 98 C58 96.68 58 95.36 58 94 C57.34 94 56.68 94 56 94 C56 93.34 56 92.68 56 92 C55.34 92 54.68 92 54 92 C54 91.34 54 90.68 54 90 C53.34 90 52.68 90 52 90 C52 89.34 52 88.68 52 88 C51.34 88 50.68 88 50 88 C50 86.68 50 85.36 50 84 C49.34 84 48.68 84 48 84 C48 83.34 48 82.68 48 82 C47.34 82 46.68 82 46 82 C46 81.34 46 80.68 46 80 C45.34 80 44.68 80 44 80 C44 79.34 44 78.68 44 78 C43.34 78 42.68 78 42 78 C42 76.68 42 75.36 42 74 C41.34 74 40.68 74 40 74 C40 73.34 40 72.68 40 72 C39.34 72 38.68 72 38 72 C38 70.68 38 69.36 38 68 C37.34 68 36.68 68 36 68 C36 67.34 36 66.68 36 66 C35.34 66 34.68 66 34 66 C34 65.34 34 64.68 34 64 C33.34 64 32.68 64 32 64 C32 62.68 32 61.36 32 60 C31.34 60 30.68 60 30 60 C30 59.34 30 58.68 30 58 C29.34 58 28.68 58 28 58 C28 56.68 28 55.36 28 54 C27.34 54 26.68 54 26 54 C26 53.34 26 52.68 26 52 C25.34 52 24.68 52 24 52 C24 50.68 24 49.36 24 48 C23.34 48 22.68 48 22 48 C22 46.68 22 45.36 22 44 C21.34 44 20.68 44 20 44 C20 43.34 20 42.68 20 42 C19.34 42 18.68 42 18 42 C18 40.68 18 39.36 18 38 C17.34 38 16.68 38 16 38 C16 41.3 16 44.6 16 48 C15.34 48 14.68 48 14 48 C14 49.98 14 51.96 14 54 C13.34 54 12.68 54 12 54 C12 55.98 12 57.96 12 60 C11.34 60 10.68 60 10 60 C10 61.32 10 62.64 10 64 C9.34 64 8.68 64 8 64 C8 64.66 8 65.32 8 66 C7.34 66 6.68 66 6 66 C6 67.32 6 68.64 6 70 C4.68 70 3.36 70 2 70 C2 70.66 2 71.32 2 72 C1.34 72 0.68 72 0 72 C0 72.66 0 73.32 0 74 C-5.94 74 -11.88 74 -18 74 C-18 73.34 -18 72.68 -18 72 C-18.66 72 -19.32 72 -20 72 C-20 71.34 -20 70.68 -20 70 C-21.32 70 -22.64 70 -24 70 C-24 69.34 -24 68.68 -24 68 C-24.66 68 -25.32 68 -26 68 C-26 67.34 -26 66.68 -26 66 C-26.66 66 -27.32 66 -28 66 C-28 65.34 -28 64.68 -28 64 C-28.66 64 -29.32 64 -30 64 C-30 63.34 -30 62.68 -30 62 C-30.66 62 -31.32 62 -32 62 C-32 61.34 -32 60.68 -32 60 C-32.66 60 -33.32 60 -34 60 C-34 59.34 -34 58.68 -34 58 C-34.66 58 -35.32 58 -36 58 C-36 57.34 -36 56.68 -36 56 C-36.66 56 -37.32 56 -38 56 C-38 55.34 -38 54.68 -38 54 C-38.66 54 -39.32 54 -40 54 C-40 53.34 -40 52.68 -40 52 C-40.66 52 -41.32 52 -42 52 C-42 51.34 -42 50.68 -42 50 C-42.66 50 -43.32 50 -44 50 C-44 49.34 -44 48.68 -44 48 C-44.66 48 -45.32 48 -46 48 C-46 47.34 -46 46.68 -46 46 C-46.66 46 -47.32 46 -48 46 C-48 44.68 -48 43.36 -48 42 C-48.66 42 -49.32 42 -50 42 C-50 41.34 -50 40.68 -50 40 C-50.66 40 -51.32 40 -52 40 C-52 39.34 -52 38.68 -52 38 C-52.66 38 -53.32 38 -54 38 C-54 36.02 -54 34.04 -54 32 C-52.68 32 -51.36 32 -50 32 C-50 33.32 -50 34.64 -50 36 C-49.34 36 -48.68 36 -48 36 C-48 37.32 -48 38.64 -48 40 C-47.34 40 -46.68 40 -46 40 C-46 40.66 -46 41.32 -46 42 C-45.34 42 -44.68 42 -44 42 C-44 43.32 -44 44.64 -44 46 C-43.34 46 -42.68 46 -42 46 C-42 46.66 -42 47.32 -42 48 C-41.34 48 -40.68 48 -40 48 C-40 48.66 -40 49.32 -40 50 C-39.34 50 -38.68 50 -38 50 C-38 50.66 -38 51.32 -38 52 C-37.34 52 -36.68 52 -36 52 C-36 52.66 -36 53.32 -36 54 C-35.34 54 -34.68 54 -34 54 C-34 54.66 -34 55.32 -34 56 C-32.68 56 -31.36 56 -30 56 C-30 56.66 -30 57.32 -30 58 C-26.04 58 -22.08 58 -18 58 C-18 57.34 -18 56.68 -18 56 C-16.68 56 -15.36 56 -14 56 C-14 55.34 -14 54.68 -14 54 C-12.68 54 -11.36 54 -10 54 C-10 53.34 -10 52.68 -10 52 C-9.34 52 -8.68 52 -8 52 C-8 50.68 -8 49.36 -8 48 C-7.34 48 -6.68 48 -6 48 C-6 47.34 -6 46.68 -6 46 C-5.34 46 -4.68 46 -4 46 C-4 44.02 -4 42.04 -4 40 C-3.34 40 -2.68 40 -2 40 C-2 38.68 -2 37.36 -2 36 C-1.34 36 -0.68 36 0 36 C0 28.08 0 20.16 0 12 C-0.66 12 -1.32 12 -2 12 C-2 10.02 -2 8.04 -2 6 C-2.66 6 -3.32 6 -4 6 C-4 5.34 -4 4.68 -4 4 C-4.66 4 -5.32 4 -6 4 C-6 3.34 -6 2.68 -6 2 C-3 0 -3 0 0 0 Z " fill="#C9A159" transform="translate(140,212)"/>
<path d="M0 0 C8.58 0 17.16 0 26 0 C26 0.66 26 1.32 26 2 C27.32 2 28.64 2 30 2 C30 2.66 30 3.32 30 4 C30.66 4 31.32 4 32 4 C32 4.66 32 5.32 32 6 C32.66 6 33.32 6 34 6 C34 6.66 34 7.32 34 8 C34.66 8 35.32 8 36 8 C36 8.66 36 9.32 36 10 C36.66 10 37.32 10 38 10 C38 10.66 38 11.32 38 12 C38.66 12 39.32 12 40 12 C40 12.66 40 13.32 40 14 C40.66 14 41.32 14 42 14 C42 14.66 42 15.32 42 16 C42.66 16 43.32 16 44 16 C44 16.66 44 17.32 44 18 C44.66 18 45.32 18 46 18 C46 18.66 46 19.32 46 20 C46.66 20 47.32 20 48 20 C48 20.66 48 21.32 48 22 C48.66 22 49.32 22 50 22 C50 22.66 50 23.32 50 24 C50.66 24 51.32 24 52 24 C52 25.32 52 26.64 52 28 C52.66 28 53.32 28 54 28 C54 28.66 54 29.32 54 30 C54.66 30 55.32 30 56 30 C56 30.66 56 31.32 56 32 C56.66 32 57.32 32 58 32 C58 33.32 58 34.64 58 36 C58.66 36 59.32 36 60 36 C60 37.32 60 38.64 60 40 C60.66 40 61.32 40 62 40 C62 45.28 62 50.56 62 56 C61.34 56 60.68 56 60 56 C60 57.32 60 58.64 60 60 C59.34 60 58.68 60 58 60 C58 61.32 58 62.64 58 64 C57.34 64 56.68 64 56 64 C56 65.32 56 66.64 56 68 C55.34 68 54.68 68 54 68 C54 68.66 54 69.32 54 70 C53.34 70 52.68 70 52 70 C52 70.66 52 71.32 52 72 C51.34 72 50.68 72 50 72 C50 72.66 50 73.32 50 74 C48.68 74 47.36 74 46 74 C46 74.66 46 75.32 46 76 C44.02 76 42.04 76 40 76 C40 75.34 40 74.68 40 74 C38.68 74 37.36 74 36 74 C36 73.34 36 72.68 36 72 C35.34 72 34.68 72 34 72 C34 71.34 34 70.68 34 70 C33.34 70 32.68 70 32 70 C32 69.34 32 68.68 32 68 C31.34 68 30.68 68 30 68 C30 67.34 30 66.68 30 66 C29.34 66 28.68 66 28 66 C28 64.02 28 62.04 28 60 C29.32 60 30.64 60 32 60 C32 59.34 32 58.68 32 58 C32.66 58 33.32 58 34 58 C34 57.34 34 56.68 34 56 C34.66 56 35.32 56 36 56 C36 55.34 36 54.68 36 54 C36.66 54 37.32 54 38 54 C38 53.34 38 52.68 38 52 C38.66 52 39.32 52 40 52 C40 51.34 40 50.68 40 50 C40.66 50 41.32 50 42 50 C42 49.34 42 48.68 42 48 C42.66 48 43.32 48 44 48 C44 46.02 44 44.04 44 42 C44.66 42 45.32 42 46 42 C46 36.06 46 30.12 46 24 C45.34 24 44.68 24 44 24 C44 23.34 44 22.68 44 22 C43.34 22 42.68 22 42 22 C42 21.34 42 20.68 42 20 C41.34 20 40.68 20 40 20 C40 19.34 40 18.68 40 18 C38.68 18 37.36 18 36 18 C36 17.34 36 16.68 36 16 C28.74 16 21.48 16 14 16 C14 16.66 14 17.32 14 18 C13.34 18 12.68 18 12 18 C12 18.66 12 19.32 12 20 C11.34 20 10.68 20 10 20 C10 20.66 10 21.32 10 22 C9.34 22 8.68 22 8 22 C8 22.66 8 23.32 8 24 C7.34 24 6.68 24 6 24 C6 24.66 6 25.32 6 26 C5.34 26 4.68 26 4 26 C4 27.32 4 28.64 4 30 C3.34 30 2.68 30 2 30 C2 33.3 2 36.6 2 40 C1.34 40 0.68 40 0 40 C0 39.34 0 38.68 0 38 C-0.66 38 -1.32 38 -2 38 C-2 37.34 -2 36.68 -2 36 C-2.66 36 -3.32 36 -4 36 C-4 35.34 -4 34.68 -4 34 C-4.66 34 -5.32 34 -6 34 C-6 33.34 -6 32.68 -6 32 C-6.66 32 -7.32 32 -8 32 C-8 30.68 -8 29.36 -8 28 C-8.66 28 -9.32 28 -10 28 C-10 22.72 -10 17.44 -10 12 C-9.34 12 -8.68 12 -8 12 C-8 10.68 -8 9.36 -8 8 C-7.34 8 -6.68 8 -6 8 C-6 7.34 -6 6.68 -6 6 C-5.34 6 -4.68 6 -4 6 C-4 5.34 -4 4.68 -4 4 C-3.34 4 -2.68 4 -2 4 C-2 3.34 -2 2.68 -2 2 C-1.34 2 -0.68 2 0 2 C0 1.34 0 0.68 0 0 Z " fill="#CBA463" transform="translate(132,0)"/>
<path d="M0 0 C1.98 0 3.96 0 6 0 C6 0.66 6 1.32 6 2 C6.66 2 7.32 2 8 2 C8 2.66 8 3.32 8 4 C9.32 4 10.64 4 12 4 C12 4.66 12 5.32 12 6 C12.66 6 13.32 6 14 6 C14 6.66 14 7.32 14 8 C14.66 8 15.32 8 16 8 C16 8.66 16 9.32 16 10 C16.66 10 17.32 10 18 10 C18 10.66 18 11.32 18 12 C18.66 12 19.32 12 20 12 C20 12.66 20 13.32 20 14 C20.66 14 21.32 14 22 14 C22 15.32 22 16.64 22 18 C22.66 18 23.32 18 24 18 C24 18.66 24 19.32 24 20 C24.66 20 25.32 20 26 20 C26 21.32 26 22.64 26 24 C26.66 24 27.32 24 28 24 C28 24.66 28 25.32 28 26 C28.66 26 29.32 26 30 26 C30 27.32 30 28.64 30 30 C30.66 30 31.32 30 32 30 C32 31.32 32 32.64 32 34 C32.66 34 33.32 34 34 34 C34 36.64 34 39.28 34 42 C33.34 42 32.68 42 32 42 C32 42.66 32 43.32 32 44 C30.68 44 29.36 44 28 44 C28 44.66 28 45.32 28 46 C27.34 46 26.68 46 26 46 C26 46.66 26 47.32 26 48 C24.68 48 23.36 48 22 48 C22 48.66 22 49.32 22 50 C21.34 50 20.68 50 20 50 C20 50.66 20 51.32 20 52 C19.34 52 18.68 52 18 52 C18 53.32 18 54.64 18 56 C17.34 56 16.68 56 16 56 C16 56.66 16 57.32 16 58 C15.34 58 14.68 58 14 58 C14 58.66 14 59.32 14 60 C13.34 60 12.68 60 12 60 C12 61.32 12 62.64 12 64 C11.34 64 10.68 64 10 64 C10 65.32 10 66.64 10 68 C9.34 68 8.68 68 8 68 C8 70.64 8 73.28 8 76 C9.98 76 11.96 76 14 76 C14 76.66 14 77.32 14 78 C15.32 78 16.64 78 18 78 C18 78.66 18 79.32 18 80 C19.32 80 20.64 80 22 80 C22 80.66 22 81.32 22 82 C22.66 82 23.32 82 24 82 C24 82.66 24 83.32 24 84 C24.66 84 25.32 84 26 84 C26 85.32 26 86.64 26 88 C25.34 88 24.68 88 24 88 C24 88.66 24 89.32 24 90 C23.34 90 22.68 90 22 90 C22 90.66 22 91.32 22 92 C18.04 92 14.08 92 10 92 C10 91.34 10 90.68 10 90 C9.34 90 8.68 90 8 90 C8 89.34 8 88.68 8 88 C6.68 88 5.36 88 4 88 C4 87.34 4 86.68 4 86 C3.34 86 2.68 86 2 86 C2 85.34 2 84.68 2 84 C1.34 84 0.68 84 0 84 C0 83.34 0 82.68 0 82 C-0.66 82 -1.32 82 -2 82 C-2 81.34 -2 80.68 -2 80 C-2.66 80 -3.32 80 -4 80 C-4 79.34 -4 78.68 -4 78 C-4.66 78 -5.32 78 -6 78 C-6 77.34 -6 76.68 -6 76 C-6.66 76 -7.32 76 -8 76 C-8 74.68 -8 73.36 -8 72 C-8.66 72 -9.32 72 -10 72 C-10 70.68 -10 69.36 -10 68 C-10.66 68 -11.32 68 -12 68 C-12 64.04 -12 60.08 -12 56 C-11.34 56 -10.68 56 -10 56 C-10 54.68 -10 53.36 -10 52 C-9.34 52 -8.68 52 -8 52 C-8 51.34 -8 50.68 -8 50 C-7.34 50 -6.68 50 -6 50 C-6 49.34 -6 48.68 -6 48 C-5.34 48 -4.68 48 -4 48 C-4 47.34 -4 46.68 -4 46 C-3.34 46 -2.68 46 -2 46 C-2 45.34 -2 44.68 -2 44 C-1.34 44 -0.68 44 0 44 C0 43.34 0 42.68 0 42 C0.66 42 1.32 42 2 42 C2 40.68 2 39.36 2 38 C2.66 38 3.32 38 4 38 C4 37.34 4 36.68 4 36 C4.66 36 5.32 36 6 36 C6 35.34 6 34.68 6 34 C6.66 34 7.32 34 8 34 C8 32.68 8 31.36 8 30 C8.66 30 9.32 30 10 30 C10 28.68 10 27.36 10 26 C10.66 26 11.32 26 12 26 C12 24.02 12 22.04 12 20 C11.34 20 10.68 20 10 20 C10 18.02 10 16.04 10 14 C9.34 14 8.68 14 8 14 C8 13.34 8 12.68 8 12 C7.34 12 6.68 12 6 12 C6 10.68 6 9.36 6 8 C5.34 8 4.68 8 4 8 C4 7.34 4 6.68 4 6 C3.34 6 2.68 6 2 6 C2 5.34 2 4.68 2 4 C1.34 4 0.68 4 0 4 C0 2.68 0 1.36 0 0 Z " fill="#C19551" transform="translate(26,184)"/>
<path d="M0 0 C0.66 0 1.32 0 2 0 C2.495 1.98 2.495 1.98 3 4 C3.33 2.68 3.66 1.36 4 0 C5.32 0 6.64 0 8 0 C8 1.32 8 2.64 8 4 C8.66 4 9.32 4 10 4 C10 5.32 10 6.64 10 8 C10.66 8 11.32 8 12 8 C12 9.32 12 10.64 12 12 C12.66 12 13.32 12 14 12 C14 17.28 14 22.56 14 28 C13.34 28 12.68 28 12 28 C12 29.98 12 31.96 12 34 C11.34 34 10.68 34 10 34 C10 35.98 10 37.96 10 40 C9.34 40 8.68 40 8 40 C8 40.66 8 41.32 8 42 C7.34 42 6.68 42 6 42 C6 42.66 6 43.32 6 44 C5.34 44 4.68 44 4 44 C4 44.66 4 45.32 4 46 C3.34 46 2.68 46 2 46 C2 46.66 2 47.32 2 48 C1.34 48 0.68 48 0 48 C0 48.66 0 49.32 0 50 C-0.66 50 -1.32 50 -2 50 C-2 50.66 -2 51.32 -2 52 C-3.98 52 -5.96 52 -8 52 C-8 52.66 -8 53.32 -8 54 C-13.28 54 -18.56 54 -24 54 C-24 53.34 -24 52.68 -24 52 C-25.32 52 -26.64 52 -28 52 C-28 51.34 -28 50.68 -28 50 C-29.32 50 -30.64 50 -32 50 C-32 49.34 -32 48.68 -32 48 C-33.32 48 -34.64 48 -36 48 C-36 47.34 -36 46.68 -36 46 C-36.66 46 -37.32 46 -38 46 C-38 45.34 -38 44.68 -38 44 C-39.32 44 -40.64 44 -42 44 C-42 43.34 -42 42.68 -42 42 C-42.66 42 -43.32 42 -44 42 C-44 41.34 -44 40.68 -44 40 C-44.66 40 -45.32 40 -46 40 C-46 39.34 -46 38.68 -46 38 C-46.66 38 -47.32 38 -48 38 C-48 37.34 -48 36.68 -48 36 C-48.66 36 -49.32 36 -50 36 C-50 35.34 -50 34.68 -50 34 C-50.66 34 -51.32 34 -52 34 C-52 33.34 -52 32.68 -52 32 C-50.02 32 -48.04 32 -46 32 C-46 32.66 -46 33.32 -46 34 C-44.68 34 -43.36 34 -42 34 C-42 34.66 -42 35.32 -42 36 C-40.68 36 -39.36 36 -38 36 C-38 36.66 -38 37.32 -38 38 C-32.72 38 -27.44 38 -22 38 C-22 37.34 -22 36.68 -22 36 C-20.68 36 -19.36 36 -18 36 C-18 35.34 -18 34.68 -18 34 C-16.68 34 -15.36 34 -14 34 C-14 33.34 -14 32.68 -14 32 C-13.34 32 -12.68 32 -12 32 C-12 31.34 -12 30.68 -12 30 C-11.34 30 -10.68 30 -10 30 C-10 29.34 -10 28.68 -10 28 C-9.34 28 -8.68 28 -8 28 C-8 26.68 -8 25.36 -8 24 C-7.34 24 -6.68 24 -6 24 C-6 23.34 -6 22.68 -6 22 C-5.34 22 -4.68 22 -4 22 C-4 19.36 -4 16.72 -4 14 C-3.34 14 -2.68 14 -2 14 C-2 12.68 -2 11.36 -2 10 C-1.34 10 -0.68 10 0 10 C0 6.7 0 3.4 0 0 Z " fill="#D3AE6A" transform="translate(248,206)"/>
<path d="M0 0 C0.66 0 1.32 0 2 0 C2 1.32 2 2.64 2 4 C2.66 4 3.32 4 4 4 C4 4.66 4 5.32 4 6 C4.66 6 5.32 6 6 6 C6 6.66 6 7.32 6 8 C6.66 8 7.32 8 8 8 C8 8.66 8 9.32 8 10 C8.66 10 9.32 10 10 10 C10 10.66 10 11.32 10 12 C11.32 12 12.64 12 14 12 C14 12.66 14 13.32 14 14 C14.66 14 15.32 14 16 14 C16 14.66 16 15.32 16 16 C14.68 16 13.36 16 12 16 C12 16.66 12 17.32 12 18 C11.34 18 10.68 18 10 18 C10 19.32 10 20.64 10 22 C9.34 22 8.68 22 8 22 C8 22.66 8 23.32 8 24 C7.34 24 6.68 24 6 24 C6 29.94 6 35.88 6 42 C6.66 42 7.32 42 8 42 C8 43.32 8 44.64 8 46 C8.66 46 9.32 46 10 46 C10 46.66 10 47.32 10 48 C10.66 48 11.32 48 12 48 C12 48.66 12 49.32 12 50 C12.66 50 13.32 50 14 50 C14 50.66 14 51.32 14 52 C13.34 52 12.68 52 12 52 C12 53.32 12 54.64 12 56 C-42.12 56 -96.24 56 -152 56 C-152 56.66 -152 57.32 -152 58 C-152.66 58 -153.32 58 -154 58 C-154 56.68 -154 55.36 -154 54 C-99.88 54 -45.76 54 10 54 C10 53.34 10 52.68 10 52 C9.34 52 8.68 52 8 52 C8 51.34 8 50.68 8 50 C7.34 50 6.68 50 6 50 C6 49.34 6 48.68 6 48 C5.34 48 4.68 48 4 48 C4 47.34 4 46.68 4 46 C3.34 46 2.68 46 2 46 C2 45.34 2 44.68 2 44 C1.34 44 0.68 44 0 44 C0 43.34 0 42.68 0 42 C-0.66 42 -1.32 42 -2 42 C-2 41.34 -2 40.68 -2 40 C-2.66 40 -3.32 40 -4 40 C-4 38.68 -4 37.36 -4 36 C-4.66 36 -5.32 36 -6 36 C-6 34.68 -6 33.36 -6 32 C-6.66 32 -7.32 32 -8 32 C-8 25.4 -8 18.8 -8 12 C-7.34 12 -6.68 12 -6 12 C-6 10.68 -6 9.36 -6 8 C-5.34 8 -4.68 8 -4 8 C-4 7.34 -4 6.68 -4 6 C-3.34 6 -2.68 6 -2 6 C-2 5.34 -2 4.68 -2 4 C-1.34 4 -0.68 4 0 4 C0 2.68 0 1.36 0 0 Z " fill="#B38C52" transform="translate(158,62)"/>
<path d="M0 0 C1.98 0 3.96 0 6 0 C6 0.66 6 1.32 6 2 C6.66 2 7.32 2 8 2 C8 2.66 8 3.32 8 4 C8.66 4 9.32 4 10 4 C10 5.32 10 6.64 10 8 C10.66 8 11.32 8 12 8 C12 9.32 12 10.64 12 12 C12.66 12 13.32 12 14 12 C14 17.28 14 22.56 14 28 C13.34 28 12.68 28 12 28 C12 29.32 12 30.64 12 32 C11.34 32 10.68 32 10 32 C10 33.32 10 34.64 10 36 C9.34 36 8.68 36 8 36 C8 37.32 8 38.64 8 40 C7.34 40 6.68 40 6 40 C6 40.66 6 41.32 6 42 C5.34 42 4.68 42 4 42 C4 42.66 4 43.32 4 44 C3.34 44 2.68 44 2 44 C2 44.66 2 45.32 2 46 C0.68 46 -0.64 46 -2 46 C-2 46.66 -2 47.32 -2 48 C-3.98 48 -5.96 48 -8 48 C-8 47.34 -8 46.68 -8 46 C-9.32 46 -10.64 46 -12 46 C-12 45.34 -12 44.68 -12 44 C-12.66 44 -13.32 44 -14 44 C-14 43.34 -14 42.68 -14 42 C-14.66 42 -15.32 42 -16 42 C-16 41.34 -16 40.68 -16 40 C-16.66 40 -17.32 40 -18 40 C-18 39.34 -18 38.68 -18 38 C-18.66 38 -19.32 38 -20 38 C-20 36.02 -20 34.04 -20 32 C-18.68 32 -17.36 32 -16 32 C-16 31.34 -16 30.68 -16 30 C-15.34 30 -14.68 30 -14 30 C-14 29.34 -14 28.68 -14 28 C-13.34 28 -12.68 28 -12 28 C-12 27.34 -12 26.68 -12 26 C-11.34 26 -10.68 26 -10 26 C-10 25.34 -10 24.68 -10 24 C-9.34 24 -8.68 24 -8 24 C-8 23.34 -8 22.68 -8 22 C-7.34 22 -6.68 22 -6 22 C-6 21.34 -6 20.68 -6 20 C-5.34 20 -4.68 20 -4 20 C-4 18.02 -4 16.04 -4 14 C-3.34 14 -2.68 14 -2 14 C-2 12.68 -2 11.36 -2 10 C-1.34 10 -0.68 10 0 10 C0 6.7 0 3.4 0 0 Z " fill="#D2AF6F" transform="translate(180,28)"/>
<path d="M0 0 C0.66 0 1.32 0 2 0 C2 1.32 2 2.64 2 4 C2.66 4 3.32 4 4 4 C4 5.32 4 6.64 4 8 C4.66 8 5.32 8 6 8 C6 9.32 6 10.64 6 12 C6.66 12 7.32 12 8 12 C8 12.66 8 13.32 8 14 C8.66 14 9.32 14 10 14 C10 15.32 10 16.64 10 18 C10.66 18 11.32 18 12 18 C12 18.66 12 19.32 12 20 C12.66 20 13.32 20 14 20 C14 21.32 14 22.64 14 24 C14.66 24 15.32 24 16 24 C16 24.66 16 25.32 16 26 C16.66 26 17.32 26 18 26 C18 27.32 18 28.64 18 30 C18.66 30 19.32 30 20 30 C20 30.66 20 31.32 20 32 C20.66 32 21.32 32 22 32 C22 32.66 22 33.32 22 34 C22.66 34 23.32 34 24 34 C24 35.32 24 36.64 24 38 C24.66 38 25.32 38 26 38 C26 38.66 26 39.32 26 40 C26.66 40 27.32 40 28 40 C28 40.66 28 41.32 28 42 C28.66 42 29.32 42 30 42 C30 43.32 30 44.64 30 46 C30.66 46 31.32 46 32 46 C32 46.66 32 47.32 32 48 C32.66 48 33.32 48 34 48 C34 48.66 34 49.32 34 50 C34.66 50 35.32 50 36 50 C36 50.66 36 51.32 36 52 C36.66 52 37.32 52 38 52 C38 52.66 38 53.32 38 54 C38.66 54 39.32 54 40 54 C40 55.32 40 56.64 40 58 C40.66 58 41.32 58 42 58 C42 58.66 42 59.32 42 60 C42.66 60 43.32 60 44 60 C44 60.66 44 61.32 44 62 C44.66 62 45.32 62 46 62 C46 62.66 46 63.32 46 64 C46.66 64 47.32 64 48 64 C48 64.66 48 65.32 48 66 C48.66 66 49.32 66 50 66 C50 66.66 50 67.32 50 68 C50.66 68 51.32 68 52 68 C52 68.66 52 69.32 52 70 C52.66 70 53.32 70 54 70 C54 70.66 54 71.32 54 72 C54.66 72 55.32 72 56 72 C56 72.66 56 73.32 56 74 C56.66 74 57.32 74 58 74 C58 75.32 58 76.64 58 78 C58.66 78 59.32 78 60 78 C60 78.66 60 79.32 60 80 C60.66 80 61.32 80 62 80 C62 80.66 62 81.32 62 82 C62.66 82 63.32 82 64 82 C64 82.66 64 83.32 64 84 C64.66 84 65.32 84 66 84 C66 84.66 66 85.32 66 86 C66.66 86 67.32 86 68 86 C68 87.32 68 88.64 68 90 C67.34 90 66.68 90 66 90 C66 89.34 66 88.68 66 88 C65.34 88 64.68 88 64 88 C64 87.34 64 86.68 64 86 C63.34 86 62.68 86 62 86 C62 85.34 62 84.68 62 84 C61.34 84 60.68 84 60 84 C60 83.34 60 82.68 60 82 C59.34 82 58.68 82 58 82 C58 81.34 58 80.68 58 80 C57.34 80 56.68 80 56 80 C56 79.34 56 78.68 56 78 C55.34 78 54.68 78 54 78 C54 77.34 54 76.68 54 76 C53.34 76 52.68 76 52 76 C52 75.34 52 74.68 52 74 C51.34 74 50.68 74 50 74 C50 73.34 50 72.68 50 72 C49.34 72 48.68 72 48 72 C48 71.34 48 70.68 48 70 C47.34 70 46.68 70 46 70 C46 68.68 46 67.36 46 66 C45.34 66 44.68 66 44 66 C44 65.34 44 64.68 44 64 C43.34 64 42.68 64 42 64 C42 63.34 42 62.68 42 62 C41.34 62 40.68 62 40 62 C40 61.34 40 60.68 40 60 C39.34 60 38.68 60 38 60 C38 59.34 38 58.68 38 58 C37.34 58 36.68 58 36 58 C36 57.34 36 56.68 36 56 C35.34 56 34.68 56 34 56 C34 54.68 34 53.36 34 52 C33.34 52 32.68 52 32 52 C32 51.34 32 50.68 32 50 C31.34 50 30.68 50 30 50 C30 49.34 30 48.68 30 48 C29.34 48 28.68 48 28 48 C28 47.34 28 46.68 28 46 C27.34 46 26.68 46 26 46 C26 44.68 26 43.36 26 42 C25.34 42 24.68 42 24 42 C24 41.34 24 40.68 24 40 C23.34 40 22.68 40 22 40 C22 39.34 22 38.68 22 38 C21.34 38 20.68 38 20 38 C20 37.34 20 36.68 20 36 C19.34 36 18.68 36 18 36 C18 34.68 18 33.36 18 32 C17.34 32 16.68 32 16 32 C16 31.34 16 30.68 16 30 C15.34 30 14.68 30 14 30 C14 28.68 14 27.36 14 26 C13.34 26 12.68 26 12 26 C12 25.34 12 24.68 12 24 C11.34 24 10.68 24 10 24 C10 23.34 10 22.68 10 22 C9.34 22 8.68 22 8 22 C8 20.68 8 19.36 8 18 C7.34 18 6.68 18 6 18 C6 17.34 6 16.68 6 16 C5.34 16 4.68 16 4 16 C4 14.68 4 13.36 4 12 C3.34 12 2.68 12 2 12 C2 11.34 2 10.68 2 10 C1.34 10 0.68 10 0 10 C0 8.68 0 7.36 0 6 C-0.66 6 -1.32 6 -2 6 C-2 5.34 -2 4.68 -2 4 C-1.34 4 -0.68 4 0 4 C0 2.68 0 1.36 0 0 Z " fill="#BE9A51" transform="translate(164,254)"/>
<path d="M0 0 C1.32 0 2.64 0 4 0 C4 0.66 4 1.32 4 2 C5.32 2 6.64 2 8 2 C8 2.66 8 3.32 8 4 C8.66 4 9.32 4 10 4 C10 4.66 10 5.32 10 6 C10.66 6 11.32 6 12 6 C12 6.66 12 7.32 12 8 C12.66 8 13.32 8 14 8 C14.33 8.99 14.66 9.98 15 11 C15.99 11.33 16.98 11.66 18 12 C18 11.34 18 10.68 18 10 C18.66 10 19.32 10 20 10 C20 11.32 20 12.64 20 14 C19.34 14 18.68 14 18 14 C18 14.66 18 15.32 18 16 C16.68 16 15.36 16 14 16 C14 16.66 14 17.32 14 18 C12.02 18 10.04 18 8 18 C8 17.34 8 16.68 8 16 C6.68 16 5.36 16 4 16 C4 15.34 4 14.68 4 14 C3.34 14 2.68 14 2 14 C2 13.34 2 12.68 2 12 C1.34 12 0.68 12 0 12 C0 11.34 0 10.68 0 10 C-0.66 10 -1.32 10 -2 10 C-2 9.34 -2 8.68 -2 8 C-2.66 8 -3.32 8 -4 8 C-4 6.02 -4 4.04 -4 2 C-2.68 2 -1.36 2 0 2 C0 1.34 0 0.68 0 0 Z " fill="#EDCF8D" transform="translate(164,58)"/>
<path d="M0 0 C29.7 0 59.4 0 90 0 C90 0.66 90 1.32 90 2 C60.96 2 31.92 2 2 2 C2 2.66 2 3.32 2 4 C1.34 4 0.68 4 0 4 C0 2.68 0 1.36 0 0 Z " fill="#B79659" transform="translate(136,132)"/>
<path d="M0 0 C1.32 0 2.64 0 4 0 C4 0.66 4 1.32 4 2 C4.66 2 5.32 2 6 2 C6 2.66 6 3.32 6 4 C6.66 4 7.32 4 8 4 C8 4.66 8 5.32 8 6 C8.66 6 9.32 6 10 6 C10 6.66 10 7.32 10 8 C10.66 8 11.32 8 12 8 C12 8.66 12 9.32 12 10 C12.66 10 13.32 10 14 10 C14 10.66 14 11.32 14 12 C14.66 12 15.32 12 16 12 C16 13.32 16 14.64 16 16 C16.66 16 17.32 16 18 16 C18 16.66 18 17.32 18 18 C18.66 18 19.32 18 20 18 C20 18.66 20 19.32 20 20 C20.66 20 21.32 20 22 20 C22 20.66 22 21.32 22 22 C22.66 22 23.32 22 24 22 C24 22.66 24 23.32 24 24 C24.66 24 25.32 24 26 24 C26 25.32 26 26.64 26 28 C25.34 28 24.68 28 24 28 C24 27.34 24 26.68 24 26 C23.34 26 22.68 26 22 26 C22 25.34 22 24.68 22 24 C21.34 24 20.68 24 20 24 C20 23.34 20 22.68 20 22 C19.34 22 18.68 22 18 22 C18 21.34 18 20.68 18 20 C17.34 20 16.68 20 16 20 C16 19.34 16 18.68 16 18 C15.34 18 14.68 18 14 18 C14 17.34 14 16.68 14 16 C13.34 16 12.68 16 12 16 C12 15.34 12 14.68 12 14 C11.34 14 10.68 14 10 14 C10 13.34 10 12.68 10 12 C9.34 12 8.68 12 8 12 C8 11.34 8 10.68 8 10 C7.34 10 6.68 10 6 10 C6 9.34 6 8.68 6 8 C5.34 8 4.68 8 4 8 C4 6.68 4 5.36 4 4 C3.34 4 2.68 4 2 4 C2 3.34 2 2.68 2 2 C1.34 2 0.68 2 0 2 C0 1.34 0 0.68 0 0 Z " fill="#AF8D49" transform="translate(206,316)"/>
<path d="M0 0 C0.66 0 1.32 0 2 0 C2 0.66 2 1.32 2 2 C3.32 2 4.64 2 6 2 C6 2.66 6 3.32 6 4 C6.66 4 7.32 4 8 4 C8 4.66 8 5.32 8 6 C8.66 6 9.32 6 10 6 C10 6.66 10 7.32 10 8 C10.66 8 11.32 8 12 8 C12 8.66 12 9.32 12 10 C12.66 10 13.32 10 14 10 C14 10.66 14 11.32 14 12 C14.66 12 15.32 12 16 12 C16 12.66 16 13.32 16 14 C15.34 14 14.68 14 14 14 C14.33 14.99 14.66 15.98 15 17 C14.01 17.66 13.02 18.32 12 19 C12 17.35 12 15.7 12 14 C11.34 14 10.68 14 10 14 C10 17.3 10 20.6 10 24 C9.34 24 8.68 24 8 24 C8 20.04 8 16.08 8 12 C7.34 12 6.68 12 6 12 C6 10.68 6 9.36 6 8 C5.34 8 4.68 8 4 8 C4 7.34 4 6.68 4 6 C2.02 6 0.04 6 -2 6 C-2 5.34 -2 4.68 -2 4 C-1.34 4 -0.68 4 0 4 C0 2.68 0 1.36 0 0 Z " fill="#C5A261" transform="translate(238,192)"/>
<path d="M0 0 C0.66 0 1.32 0 2 0 C2 3.96 2 7.92 2 12 C2.66 12 3.32 12 4 12 C4 13.98 4 15.96 4 18 C4.763125 17.95875 5.52625 17.9175 6.3125 17.875 C9 18 9 18 12 20 C12 20.66 12 21.32 12 22 C12.66 22 13.32 22 14 22 C14 23.32 14 24.64 14 26 C12.68 26 11.36 26 10 26 C10 26.66 10 27.32 10 28 C9.34 28 8.68 28 8 28 C8 27.34 8 26.68 8 26 C7.34 26 6.68 26 6 26 C6 25.34 6 24.68 6 24 C5.34 24 4.68 24 4 24 C4 22.68 4 21.36 4 20 C3.34 20 2.68 20 2 20 C2 18.68 2 17.36 2 16 C1.34 16 0.68 16 0 16 C0 10.72 0 5.44 0 0 Z " fill="#BC9458" transform="translate(150,78)"/>
<path d="M0 0 C0.66 0 1.32 0 2 0 C2 1.32 2 2.64 2 4 C2.66 4 3.32 4 4 4 C4 5.32 4 6.64 4 8 C4.66 8 5.32 8 6 8 C6 9.32 6 10.64 6 12 C6.66 12 7.32 12 8 12 C8 12.66 8 13.32 8 14 C8.66 14 9.32 14 10 14 C10 15.32 10 16.64 10 18 C10.66 18 11.32 18 12 18 C12 18.66 12 19.32 12 20 C12.66 20 13.32 20 14 20 C14 20.66 14 21.32 14 22 C13.34 22 12.68 22 12 22 C12 22.66 12 23.32 12 24 C11.34 24 10.68 24 10 24 C10 23.34 10 22.68 10 22 C9.34 22 8.68 22 8 22 C8 20.68 8 19.36 8 18 C7.34 18 6.68 18 6 18 C6 17.34 6 16.68 6 16 C5.34 16 4.68 16 4 16 C4 14.68 4 13.36 4 12 C3.34 12 2.68 12 2 12 C2 11.34 2 10.68 2 10 C1.34 10 0.68 10 0 10 C0 8.68 0 7.36 0 6 C-0.66 6 -1.32 6 -2 6 C-2 5.34 -2 4.68 -2 4 C-1.34 4 -0.68 4 0 4 C0 2.68 0 1.36 0 0 Z " fill="#B2904F" transform="translate(164,254)"/>
<path d="M0 0 C0.66 0 1.32 0 2 0 C2.33 0.66 2.66 1.32 3 2 C3.99 2 4.98 2 6 2 C6 3.32 6 4.64 6 6 C6.66 6 7.32 6 8 6 C8 7.32 8 8.64 8 10 C8.66 10 9.32 10 10 10 C10 12.64 10 15.28 10 18 C9.34 18 8.68 18 8 18 C8 17.34 8 16.68 8 16 C7.34 16 6.68 16 6 16 C6 15.34 6 14.68 6 14 C5.34 14 4.68 14 4 14 C4 12.68 4 11.36 4 10 C3.34 10 2.68 10 2 10 C2 10.66 2 11.32 2 12 C1.34 12 0.68 12 0 12 C0 8.04 0 4.08 0 0 Z " fill="#BC9557" transform="translate(154,240)"/>
<path d="M0 0 C2.64 0 5.28 0 8 0 C8 0.66 8 1.32 8 2 C8.66 2 9.32 2 10 2 C10 2.66 10 3.32 10 4 C10.66 4 11.32 4 12 4 C12 4.66 12 5.32 12 6 C12.66 6 13.32 6 14 6 C14 6.66 14 7.32 14 8 C14.66 8 15.32 8 16 8 C16 9.32 16 10.64 16 12 C14.68 12 13.36 12 12 12 C12 15.3 12 18.6 12 22 C11.34 22 10.68 22 10 22 C10 17.38 10 12.76 10 8 C9.34 8 8.68 8 8 8 C8 7.34 8 6.68 8 6 C7.34 6 6.68 6 6 6 C6 5.34 6 4.68 6 4 C5.34 4 4.68 4 4 4 C4 3.34 4 2.68 4 2 C2.68 2 1.36 2 0 2 C0 1.34 0 0.68 0 0 Z " fill="#B89558" transform="translate(168,16)"/>
<path d="M0 0 C0.66 0 1.32 0 2 0 C2 1.98 2 3.96 2 6 C2.66 6 3.32 6 4 6 C4 6.66 4 7.32 4 8 C4.66 8 5.32 8 6 8 C6 8.66 6 9.32 6 10 C6.66 10 7.32 10 8 10 C8 10.66 8 11.32 8 12 C8.66 12 9.32 12 10 12 C10 12.66 10 13.32 10 14 C10.66 14 11.32 14 12 14 C12 14.66 12 15.32 12 16 C13.32 16 14.64 16 16 16 C16 16.66 16 17.32 16 18 C14.68 18 13.36 18 12 18 C12 18.66 12 19.32 12 20 C11.34 20 10.68 20 10 20 C10 18.68 10 17.36 10 16 C9.34 16 8.68 16 8 16 C8 15.34 8 14.68 8 14 C7.34 14 6.68 14 6 14 C6 13.34 6 12.68 6 12 C5.34 12 4.68 12 4 12 C4 11.34 4 10.68 4 10 C3.34 10 2.68 10 2 10 C2 9.34 2 8.68 2 8 C1.34 8 0.68 8 0 8 C0 7.34 0 6.68 0 6 C-0.66 6 -1.32 6 -2 6 C-2 5.34 -2 4.68 -2 4 C-1.34 4 -0.68 4 0 4 C0 2.68 0 1.36 0 0 Z " fill="#BD9954" transform="translate(184,220)"/>
<path d="M0 0 C0.66 0 1.32 0 2 0 C2 0.66 2 1.32 2 2 C2.66 2 3.32 2 4 2 C4 2.66 4 3.32 4 4 C-7.22 4 -18.44 4 -30 4 C-30 3.34 -30 2.68 -30 2 C-20.1 2 -10.2 2 0 2 C0 1.34 0 0.68 0 0 Z " fill="#B89354" transform="translate(318,130)"/>
<path d="M0 0 C1.98 0 3.96 0 6 0 C6 1.32 6 2.64 6 4 C6.66 4 7.32 4 8 4 C8 4.66 8 5.32 8 6 C8.66 6 9.32 6 10 6 C10 6.66 10 7.32 10 8 C10.66 8 11.32 8 12 8 C12 8.66 12 9.32 12 10 C11.34 10 10.68 10 10 10 C10 11.32 10 12.64 10 14 C9.34 14 8.68 14 8 14 C8 12.68 8 11.36 8 10 C7.34 10 6.68 10 6 10 C6 9.34 6 8.68 6 8 C5.34 8 4.68 8 4 8 C4 7.34 4 6.68 4 6 C3.34 6 2.68 6 2 6 C2 5.34 2 4.68 2 4 C1.34 4 0.68 4 0 4 C0 2.68 0 1.36 0 0 Z " fill="#B89256" transform="translate(160,104)"/>
<path d="M0 0 C1.98 0 3.96 0 6 0 C6 0.66 6 1.32 6 2 C7.32 2 8.64 2 10 2 C10 2.66 10 3.32 10 4 C11.32 4 12.64 4 14 4 C14 4.66 14 5.32 14 6 C13.34 6 12.68 6 12 6 C12 6.66 12 7.32 12 8 C11.34 8 10.68 8 10 8 C10 8.66 10 9.32 10 10 C9.34 10 8.68 10 8 10 C8 9.34 8 8.68 8 8 C7.34 8 6.68 8 6 8 C6 7.34 6 6.68 6 6 C5.34 6 4.68 6 4 6 C4 5.34 4 4.68 4 4 C3.34 4 2.68 4 2 4 C2 3.34 2 2.68 2 2 C1.34 2 0.68 2 0 2 C0 1.34 0 0.68 0 0 Z " fill="#CAA563" transform="translate(196,238)"/>
<path d="M0 0 C0.66 0 1.32 0 2 0 C2 1.32 2 2.64 2 4 C2.66 4 3.32 4 4 4 C4 5.32 4 6.64 4 8 C4.66 8 5.32 8 6 8 C6 9.32 6 10.64 6 12 C5.34 12 4.68 12 4 12 C4 12.66 4 13.32 4 14 C3.34 14 2.68 14 2 14 C2 13.34 2 12.68 2 12 C1.34 12 0.68 12 0 12 C0 10.68 0 9.36 0 8 C-0.66 8 -1.32 8 -2 8 C-2 6.68 -2 5.36 -2 4 C-1.34 4 -0.68 4 0 4 C0 2.68 0 1.36 0 0 Z " fill="#D0AA63" transform="translate(82,232)"/>
<path d="M0 0 C1.98 0 3.96 0 6 0 C6 2 6 4 6 6 C6.66 6 7.32 6 8 6 C8 6.66 8 7.32 8 8 C8.66 8 9.32 8 10 8 C10 8.66 10 9.32 10 10 C11.32 10 12.64 10 14 10 C14 10.66 14 11.32 14 12 C12.02 12 10.04 12 8 12 C8 11.34 8 10.68 8 10 C7.34 10 6.68 10 6 10 C6 9.34 6 8.68 6 8 C5.34 8 4.68 8 4 8 C4 7.34 4 6.68 4 6 C3.34 6 2.68 6 2 6 C2 5.34 2 4.68 2 4 C1.34 4 0.68 4 0 4 C0 2.68 0 1.36 0 0 Z " fill="#EDD592" transform="translate(160,62)"/>
<path d="M0 0 C0.66 0 1.32 0 2 0 C2 0.66 2 1.32 2 2 C3.32 2 4.64 2 6 2 C6 2.66 6 3.32 6 4 C6.66 4 7.32 4 8 4 C8 4.66 8 5.32 8 6 C8.66 6 9.32 6 10 6 C10 6.66 10 7.32 10 8 C9.34 8 8.68 8 8 8 C8 9.32 8 10.64 8 12 C7.34 12 6.68 12 6 12 C6 10.68 6 9.36 6 8 C5.34 8 4.68 8 4 8 C4 7.34 4 6.68 4 6 C2.02 6 0.04 6 -2 6 C-2 5.34 -2 4.68 -2 4 C-1.34 4 -0.68 4 0 4 C0 2.68 0 1.36 0 0 Z " fill="#B9985D" transform="translate(238,192)"/>
<path d="M0 0 C2 0.66666667 4 1.33333333 6 2 C6 2.66 6 3.32 6 4 C6.66 4 7.32 4 8 4 C8 5.32 8 6.64 8 8 C6.68 8 5.36 8 4 8 C4 8.66 4 9.32 4 10 C3.34 10 2.68 10 2 10 C2 9.34 2 8.68 2 8 C1.34 8 0.68 8 0 8 C0 5.36 0 2.72 0 0 Z " fill="#CA9D5E" transform="translate(156,96)"/>
<path d="M0 0 C1.32 0 2.64 0 4 0 C4 4.62 4 9.24 4 14 C3.34 14 2.68 14 2 14 C2 13.34 2 12.68 2 12 C1.34 12 0.68 12 0 12 C0 8.04 0 4.08 0 0 Z " fill="#B58E4F" transform="translate(14,240)"/>
<path d="M0 0 C0.66 0 1.32 0 2 0 C2 1.32 2 2.64 2 4 C2.66 4 3.32 4 4 4 C4 6.64 4 9.28 4 12 C3.34 12 2.68 12 2 12 C2 11.34 2 10.68 2 10 C1.34 10 0.68 10 0 10 C0 9.34 0 8.68 0 8 C-0.66 8 -1.32 8 -2 8 C-2 6.68 -2 5.36 -2 4 C-2.66 4 -3.32 4 -4 4 C-4 3.34 -4 2.68 -4 2 C-2.68 2 -1.36 2 0 2 C0 1.34 0 0.68 0 0 Z " fill="#DDB670" transform="translate(180,212)"/>
<path d="M0 0 C0.66 0 1.32 0 2 0 C2 5.28 2 10.56 2 16 C2.66 16 3.32 16 4 16 C4 17.32 4 18.64 4 20 C4.66 20 5.32 20 6 20 C6 20.66 6 21.32 6 22 C4.68 22 3.36 22 2 22 C2 20.68 2 19.36 2 18 C1.34 18 0.68 18 0 18 C0 12.06 0 6.12 0 0 Z " fill="#37322B" transform="translate(148,78)"/>
<path d="M0 0 C1.32 0 2.64 0 4 0 C4 0.66 4 1.32 4 2 C4.66 2 5.32 2 6 2 C6 2.66 6 3.32 6 4 C6.66 4 7.32 4 8 4 C8 4.66 8 5.32 8 6 C8.66 6 9.32 6 10 6 C9.34 7.32 8.68 8.64 8 10 C6.68 10 5.36 10 4 10 C4 9.34 4 8.68 4 8 C3.34 8 2.68 8 2 8 C2 7.34 2 6.68 2 6 C2.66 6 3.32 6 4 6 C4 5.34 4 4.68 4 4 C3.34 4 2.68 4 2 4 C2 3.34 2 2.68 2 2 C1.34 2 0.68 2 0 2 C0 1.34 0 0.68 0 0 Z " fill="#D6AA5F" transform="translate(128,204)"/>
<path d="M0 0 C0.66 0 1.32 0 2 0 C2 0.66 2 1.32 2 2 C2.66 2 3.32 2 4 2 C4 2.66 4 3.32 4 4 C4.66 4 5.32 4 6 4 C6 4.66 6 5.32 6 6 C6.66 6 7.32 6 8 6 C8 6.66 8 7.32 8 8 C8.66 8 9.32 8 10 8 C10 8.66 10 9.32 10 10 C10.66 10 11.32 10 12 10 C12 11.32 12 12.64 12 14 C11.34 14 10.68 14 10 14 C10 13.34 10 12.68 10 12 C9.34 12 8.68 12 8 12 C8 11.34 8 10.68 8 10 C7.34 10 6.68 10 6 10 C6 9.34 6 8.68 6 8 C5.34 8 4.68 8 4 8 C4 7.34 4 6.68 4 6 C3.34 6 2.68 6 2 6 C2 5.34 2 4.68 2 4 C1.34 4 0.68 4 0 4 C0 2.68 0 1.36 0 0 Z " fill="#BA944C" transform="translate(220,330)"/>
<path d="M0 0 C1.98 0 3.96 0 6 0 C6 0.66 6 1.32 6 2 C6.66 2 7.32 2 8 2 C8 4.64 8 7.28 8 10 C7.34 10 6.68 10 6 10 C6 9.34 6 8.68 6 8 C5.34 8 4.68 8 4 8 C4 7.34 4 6.68 4 6 C3.34 6 2.68 6 2 6 C2 4.68 2 3.36 2 2 C1.34 2 0.68 2 0 2 C0 1.34 0 0.68 0 0 Z " fill="#BE9449" transform="translate(282,326)"/>
<path d="M0 0 C6.27 0 12.54 0 19 0 C19.33 1.32 19.66 2.64 20 4 C18.68 4 17.36 4 16 4 C16 3.34 16 2.68 16 2 C10.72 2 5.44 2 0 2 C0 1.34 0 0.68 0 0 Z " fill="#987B4B" transform="translate(96,202)"/>
<path d="M0 0 C0.66 0 1.32 0 2 0 C2 0.66 2 1.32 2 2 C2.66 2 3.32 2 4 2 C4 4.64 4 7.28 4 10 C3.34 10 2.68 10 2 10 C2 9.34 2 8.68 2 8 C1.34 8 0.68 8 0 8 C0 5.36 0 2.72 0 0 Z " fill="#CFA054" transform="translate(160,248)"/>
<path d="M0 0 C0.66 0 1.32 0 2 0 C2 0.66 2 1.32 2 2 C2.66 2 3.32 2 4 2 C4 3.98 4 5.96 4 8 C3.34 8 2.68 8 2 8 C2 8.66 2 9.32 2 10 C1.34 10 0.68 10 0 10 C0 6.7 0 3.4 0 0 Z " fill="#2F2E29" transform="translate(34,202)"/>
<path d="M0 0 C1.32 0 2.64 0 4 0 C4 0.66 4 1.32 4 2 C3.34 2 2.68 2 2 2 C2 2.66 2 3.32 2 4 C1.34 4 0.68 4 0 4 C0 4.66 0 5.32 0 6 C-0.66 6 -1.32 6 -2 6 C-2 6.66 -2 7.32 -2 8 C-3.32 8 -4.64 8 -6 8 C-6 7.34 -6 6.68 -6 6 C-5.34 6 -4.68 6 -4 6 C-4 5.34 -4 4.68 -4 4 C-3.34 4 -2.68 4 -2 4 C-2 3.34 -2 2.68 -2 2 C-1.34 2 -0.68 2 0 2 C0 1.34 0 0.68 0 0 Z " fill="#B89458" transform="translate(132,0)"/>
<path d="M0 0 C0.66 0 1.32 0 2 0 C2 2.64 2 5.28 2 8 C1.34 8 0.68 8 0 8 C0 8.66 0 9.32 0 10 C-1.32 10 -2.64 10 -4 10 C-4 9.34 -4 8.68 -4 8 C-3.34 8 -2.68 8 -2 8 C-2 7.34 -2 6.68 -2 6 C-1.34 6 -0.68 6 0 6 C0 4.02 0 2.04 0 0 Z " fill="#AF8D52" transform="translate(136,252)"/>
<path d="M0 0 C0.66 0 1.32 0 2 0 C2 1.32 2 2.64 2 4 C2.66 4 3.32 4 4 4 C4 4.66 4 5.32 4 6 C3.34 6 2.68 6 2 6 C2 6.66 2 7.32 2 8 C0.68 8 -0.64 8 -2 8 C-2 6.68 -2 5.36 -2 4 C-1.34 4 -0.68 4 0 4 C0 2.68 0 1.36 0 0 Z " fill="#DBB164" transform="translate(82,232)"/>
<path d="M0 0 C2.64 0 5.28 0 8 0 C8 0.66 8 1.32 8 2 C7.34 2 6.68 2 6 2 C6 2.66 6 3.32 6 4 C4.02 4 2.04 4 0 4 C0 2.68 0 1.36 0 0 Z " fill="#33302D" transform="translate(210,172)"/>
<path d="M0 0 C0.66 0 1.32 0 2 0 C2 3.3 2 6.6 2 10 C1.34 10 0.68 10 0 10 C0 9.34 0 8.68 0 8 C-0.66 8 -1.32 8 -2 8 C-2 6.68 -2 5.36 -2 4 C-1.34 4 -0.68 4 0 4 C0 2.68 0 1.36 0 0 Z " fill="#DCB063" transform="translate(132,30)"/>
<path d="M0 0 C0.66 0 1.32 0 2 0 C2 0.66 2 1.32 2 2 C2.66 2 3.32 2 4 2 C4 2.66 4 3.32 4 4 C4.66 4 5.32 4 6 4 C6 4.66 6 5.32 6 6 C3.36 6 0.72 6 -2 6 C-2 5.34 -2 4.68 -2 4 C-1.34 4 -0.68 4 0 4 C0 2.68 0 1.36 0 0 Z " fill="#DDAD63" transform="translate(168,10)"/>
<path d="M0 0 C1.98 0 3.96 0 6 0 C5.34 1.98 4.68 3.96 4 6 C3.34 6 2.68 6 2 6 C2 5.34 2 4.68 2 4 C1.34 4 0.68 4 0 4 C0 2.68 0 1.36 0 0 Z " fill="#F5DC9C" transform="translate(160,62)"/>
<path d="M0 0 C1.32 0 2.64 0 4 0 C4 1.32 4 2.64 4 4 C4.66 4 5.32 4 6 4 C6 4.66 6 5.32 6 6 C4.68 6 3.36 6 2 6 C2 5.34 2 4.68 2 4 C1.34 4 0.68 4 0 4 C0 2.68 0 1.36 0 0 Z " fill="#212429" transform="translate(174,280)"/>
<path d="M0 0 C1.32 0 2.64 0 4 0 C4 0.66 4 1.32 4 2 C3.34 2 2.68 2 2 2 C2 2.66 2 3.32 2 4 C1.34 4 0.68 4 0 4 C0 4.66 0 5.32 0 6 C-1.32 6 -2.64 6 -4 6 C-4 5.34 -4 4.68 -4 4 C-3.34 4 -2.68 4 -2 4 C-2 3.34 -2 2.68 -2 2 C-1.34 2 -0.68 2 0 2 C0 1.34 0 0.68 0 0 Z " fill="#BD9D67" transform="translate(172,50)"/>
<path d="M0 0 C1.32 0 2.64 0 4 0 C4 0.66 4 1.32 4 2 C4.66 2 5.32 2 6 2 C6.33 2.99 6.66 3.98 7 5 C6.01 5.33 5.02 5.66 4 6 C4 5.34 4 4.68 4 4 C3.34 4 2.68 4 2 4 C2 3.34 2 2.68 2 2 C1.34 2 0.68 2 0 2 C0 1.34 0 0.68 0 0 Z " fill="#B88944" transform="translate(274,318)"/>
<path d="M0 0 C1.32 0 2.64 0 4 0 C4 0.66 4 1.32 4 2 C3.34 2 2.68 2 2 2 C2 2.66 2 3.32 2 4 C0.02 4.66 -1.96 5.32 -4 6 C-4 5.34 -4 4.68 -4 4 C-3.34 4 -2.68 4 -2 4 C-2 3.34 -2 2.68 -2 2 C-1.34 2 -0.68 2 0 2 C0 1.34 0 0.68 0 0 Z " fill="#10181C" transform="translate(144,18)"/>
<path d="M0 0 C0.66 0 1.32 0 2 0 C2 0.66 2 1.32 2 2 C2.66 2 3.32 2 4 2 C4 3.98 4 5.96 4 8 C3.34 8 2.68 8 2 8 C2 6.68 2 5.36 2 4 C1.34 4 0.68 4 0 4 C0 2.68 0 1.36 0 0 Z " fill="#212426" transform="translate(202,304)"/>
<path d="M0 0 C0.66 0 1.32 0 2 0 C2 0.66 2 1.32 2 2 C2.66 2 3.32 2 4 2 C4 2.66 4 3.32 4 4 C4.66 4 5.32 4 6 4 C6 4.66 6 5.32 6 6 C4.68 6 3.36 6 2 6 C2 5.34 2 4.68 2 4 C1.34 4 0.68 4 0 4 C0 2.68 0 1.36 0 0 Z " fill="#1E2129" transform="translate(84,248)"/>
<path d="M0 0 C1.98 0 3.96 0 6 0 C6 1.32 6 2.64 6 4 C4.68 4 3.36 4 2 4 C2 3.34 2 2.68 2 2 C1.34 2 0.68 2 0 2 C0 1.34 0 0.68 0 0 Z " fill="#D3AA5E" transform="translate(196,238)"/>
<path d="M0 0 C0.66 0 1.32 0 2 0 C2 2.64 2 5.28 2 8 C1.34 8 0.68 8 0 8 C0 7.34 0 6.68 0 6 C-0.66 6 -1.32 6 -2 6 C-2 5.34 -2 4.68 -2 4 C-1.34 4 -0.68 4 0 4 C0 2.68 0 1.36 0 0 Z " fill="#A98F57" transform="translate(184,220)"/>
<path d="M0 0 C2.64 0 5.28 0 8 0 C8 1.32 8 2.64 8 4 C7.34 4 6.68 4 6 4 C6 3.34 6 2.68 6 2 C4.02 2 2.04 2 0 2 C0 1.34 0 0.68 0 0 Z " fill="#B68F52" transform="translate(118,206)"/>
<path d="M0 0 C0.66 0 1.32 0 2 0 C2 0.66 2 1.32 2 2 C2.66 2 3.32 2 4 2 C4 1.34 4 0.68 4 0 C4.66 0 5.32 0 6 0 C6 1.32 6 2.64 6 4 C4.02 4 2.04 4 0 4 C0 2.68 0 1.36 0 0 Z " fill="#DCB469" transform="translate(232,192)"/>
<path d="M0 0 C1.32 0 2.64 0 4 0 C4 0.66 4 1.32 4 2 C5.32 2 6.64 2 8 2 C8 2.66 8 3.32 8 4 C6.02 4 4.04 4 2 4 C2 3.34 2 2.68 2 2 C1.34 2 0.68 2 0 2 C0 1.34 0 0.68 0 0 Z " fill="#C2974F" transform="translate(30,186)"/>
<path d="M0 0 C0.66 0 1.32 0 2 0 C2 1.32 2 2.64 2 4 C1.34 4 0.68 4 0 4 C0 4.66 0 5.32 0 6 C-0.66 6 -1.32 6 -2 6 C-2 5.34 -2 4.68 -2 4 C-2.66 4 -3.32 4 -4 4 C-4 3.34 -4 2.68 -4 2 C-2.68 2 -1.36 2 0 2 C0 1.34 0 0.68 0 0 Z " fill="#E7C17E" transform="translate(182,68)"/>
<path d="M0 0 C0 0.66 0 1.32 0 2 C-0.66 2 -1.32 2 -2 2 C-2 3.32 -2 4.64 -2 6 C-2.66 6 -3.32 6 -4 6 C-4 5.34 -4 4.68 -4 4 C-4.66 4 -5.32 4 -6 4 C-6 3.34 -6 2.68 -6 2 C-3 0 -3 0 0 0 Z " fill="#C29D5D" transform="translate(140,212)"/>
<path d="M0 0 C0.66 0 1.32 0 2 0 C1.67 1.65 1.34 3.3 1 5 C0.01 5.33 -0.98 5.66 -2 6 C-2 4.68 -2 3.36 -2 2 C-1.34 2 -0.68 2 0 2 C0 1.34 0 0.68 0 0 Z " fill="#D0AE6E" transform="translate(224,166)"/>
<path d="M0 0 C0.66 0 1.32 0 2 0 C2 1.98 2 3.96 2 6 C1.01 6.495 1.01 6.495 0 7 C-0.66 6.67 -1.32 6.34 -2 6 C-2 5.34 -2 4.68 -2 4 C-1.34 4 -0.68 4 0 4 C0 2.68 0 1.36 0 0 Z " fill="#B59761" transform="translate(126,162)"/>
<path d="M0 0 C0.66 0 1.32 0 2 0 C2 1.98 2 3.96 2 6 C1.01 6.495 1.01 6.495 0 7 C-0.66 6.67 -1.32 6.34 -2 6 C-2 5.34 -2 4.68 -2 4 C-1.34 4 -0.68 4 0 4 C0 2.68 0 1.36 0 0 Z " fill="#A07B4E" transform="translate(152,70)"/>
</svg>
